/* XPM */
static char *_7afc7ab85824892bbcb78d57ec35744ovlg7wv9mHeuOObq[] = {
/* columns rows colors chars-per-pixel */
"64 64 206 2 ",
"   c black",
".  c #FFF388",
"X  c #FFF386",
"o  c #FFF285",
"O  c #FFF388",
"+  c #FFF385",
"@  c #FFF285",
"#  c #FFF281",
"$  c None",
"%  c #FFF280",
"&  c #FFF380",
"*  c #FFF27F",
"=  c #FFF480",
"-  c #FFF681",
";  c #D4C969",
":  c #97904C",
">  c #99914C",
",  c #D3C969",
"<  c #918A49",
"1  c #6B6C42",
"2  c #A8AA68",
"3  c #A5A766",
"4  c #928A49",
"5  c #A8A967",
"6  c #FFFFA0",
"7  c #FFFF9E",
"8  c #A5A666",
"9  c #FCFE9B",
"0  c #FAFC9A",
"q  c #FAFB99",
"w  c #F6F897",
"e  c #7E7F4E",
"r  c #525232",
"t  c #535333",
"y  c #525333",
"u  c #505031",
"i  c #848551",
"p  c #F8FA99",
"a  c #FDFF9B",
"s  c #F3F595",
"d  c #3C3D25",
"f  c black",
"g  c #10100A",
"h  c #1A1A10",
"j  c #19190F",
"k  c #15160D",
"l  c #5B5C38",
"z  c #F7F998",
"x  c #3F4027",
"c  c #97985D",
"v  c #E0E28A",
"b  c #DCDE87",
"n  c #DCDD87",
"m  c #E5E78D",
"M  c #FBFD9B",
"N  c #AEAF6B",
"B  c #FFFF9F",
"V  c #FEFF9C",
"C  c #FDFF9C",
"Z  c #ADAE6A",
"A  c #A7A967",
"S  c #F9FB99",
"D  c #F5F797",
"F  c #3E3E26",
"G  c #2C2C1B",
"H  c #424329",
"J  c #414228",
"K  c #434429",
"L  c #60613B",
"P  c #EDEE91",
"I  c #F4F696",
"U  c #222215",
"Y  c #222315",
"T  c #212114",
"R  c #1B1B10",
"E  c #010100",
"W  c #1D1D12",
"Q  c #212215",
"!  c #1F1F13",
"~  c #45462A",
"^  c #EAEC90",
"/  c #FBFD9A",
"(  c #E3E58C",
")  c #E4E68C",
"_  c #E6E88E",
"`  c #BCBD74",
"'  c #1C1C11",
"]  c #C9CB7C",
"[  c #E6E78D",
"{  c #E4E58C",
"}  c #E8EA8F",
"|  c #D5D683",
" . c #12120B",
".. c #1F2013",
"X. c #CDCF7E",
"o. c #8C8D56",
"O. c #8D8E57",
"+. c #8F9058",
"@. c #747548",
"#. c #090A06",
"$. c #11110A",
"%. c #7D7E4D",
"&. c #8E8F57",
"*. c #8D8F57",
"=. c #D4D683",
"-. c #92935A",
";. c #010101",
":. c #030302",
">. c #020201",
",. c #A2A464",
"<. c #D9DB86",
"1. c #AAAB69",
"2. c #AAAC69",
"3. c #ABAC69",
"4. c #ACAD6A",
"5. c #ACAE6A",
"6. c #DFE189",
"7. c #ECEE91",
"8. c #E1E38A",
"9. c #DBDD87",
"0. c #E2E48B",
"q. c #EEF093",
"w. c #C6C87A",
"e. c #46472B",
"r. c #282819",
"t. c #14140C",
"y. c #14150D",
"u. c #1B1B11",
"i. c #2B2C1B",
"p. c #4D4E2F",
"a. c #878953",
"s. c #D1D381",
"d. c #EDEF92",
"f. c #737447",
"g. c #47472B",
"h. c #60603B",
"j. c #6A6B41",
"k. c #5D5E39",
"l. c #424229",
"z. c #1B1C11",
"x. c #191A10",
"c. c #8A8B55",
"v. c #80814F",
"b. c #9D9E61",
"n. c #E1E38B",
"m. c #F5F796",
"M. c #15150D",
"N. c #050503",
"B. c #9E9F61",
"V. c #FFFF9D",
"C. c #EBED91",
"Z. c #31311E",
"A. c #A0A162",
"S. c #81824F",
"D. c #E9EB90",
"F. c #2D2D1C",
"G. c #AAAB68",
"H. c #8A8C55",
"J. c #48492C",
"K. c #6E6F44",
"L. c #31321E",
"P. c #B7B870",
"I. c #EFF193",
"U. c #A6A866",
"Y. c #E3E48B",
"T. c #585836",
"R. c #040402",
"E. c #080805",
"W. c #373722",
"Q. c #61623C",
"!. c #7C7D4C",
"~. c #878853",
"^. c #868753",
"/. c #797A4A",
"(. c #5C5D39",
"). c #30301D",
"_. c #0A0A06",
"`. c #6E6F43",
"'. c #EEF092",
"]. c #F1F394",
"[. c #2B2B1A",
"{. c #13130C",
"}. c #070704",
"|. c #0B0B07",
" X c #16160D",
".X c #30311E",
"XX c #66673F",
"oX c #B7B971",
"OX c #E9EB8F",
"+X c #D5D783",
"@X c #C6C77A",
"#X c #BEC075",
"$X c #BFC075",
"%X c #C8C97B",
"&X c #D8DA85",
"*X c #FEFF9D",
"=X c #908948",
"-X c #6A6B42",
";X c #A4A665",
":X c #C2B861",
">X c #726C39",
",X c #736D3A",
"<X c #FEF17E",
"1X c #FBEF7D",
"2X c #FBEE7D",
"3X c white",
/* pixels */
"                                                                                                                                ",
"                                                                                                                                ",
"    . . X o o o o o o o o o o o o o o o o o o o o o o o o o o o o o o o o o o o o o o o o o o o o o o o o o o o o o o X . .     ",
"    . O + @ @ @ @ @ @ @ @ @ @ @ @ @ @ @ @ @ @ @ @ @ @ @ @ @ @ @ @ @ @ @ @ @ @ @ @ @ @ @ @ @ @ @ @ @ @ @ @ @ @ @ @ @ @ + O .     ",
"    X + # $ % % % % % % % % % % % % % % % % % % % % % % % % % % % % % % % % % % % % % % % % % % % % % % % % % % % % $ # + X     ",
"    o @ $ * = - - - - - - - - - - - - - - - - - - - - - - - - - - - - - - - - - - - - - - - - - - - - - - - - - - = * $ @ o     ",
"    o @ % = ; : > > > > > > > > > > > > > > > > > > > > > > > > > > > > > > > > > > > > > > > > > > > > > > > > : , = % @ o     ",
"    o @ % - < 1 2 3 3 3 3 3 3 3 3 3 3 3 3 3 3 3 3 3 3 3 3 3 3 3 3 3 3 3 3 3 3 3 3 3 3 3 3 3 3 3 3 3 3 3 3 3 3 2 1 < - % @ o     ",
"    o @ % - 4 5 6 7 7 7 7 7 7 7 7 7 7 7 7 7 7 7 7 7 7 7 7 7 7 7 7 7 7 7 7 7 7 7 7 7 7 7 7 7 7 7 7 7 7 7 7 7 7 6 5 4 - % @ o     ",
"    o @ % - 4 8 7 9 9 9 9 9 9 9 9 9 9 9 9 9 9 9 9 9 9 9 9 9 9 9 9 9 9 9 9 9 9 9 9 9 9 9 9 9 9 9 9 9 9 9 9 9 9 7 8 4 - % @ o     ",
"    o @ % - 4 8 7 9 9 9 9 9 9 9 9 9 9 9 9 9 9 9 9 9 9 9 9 9 9 9 9 9 9 9 9 9 9 9 9 9 9 9 9 9 9 9 9 9 9 9 9 9 9 7 8 4 - % @ o     ",
"    o @ % - 4 8 7 9 9 9 9 9 9 9 9 9 9 9 9 9 9 9 9 9 9 9 9 9 9 9 9 9 9 9 9 9 9 9 9 9 9 9 9 9 9 9 9 9 9 9 9 9 9 7 8 4 - % @ o     ",
"    o @ % - 4 8 7 9 9 9 9 9 9 9 9 9 9 9 9 9 9 9 9 9 9 9 9 9 9 9 9 9 9 9 9 9 9 9 9 9 9 9 9 9 9 9 9 9 9 9 9 9 9 7 8 4 - % @ o     ",
"    o @ % - 4 8 7 9 9 9 9 9 9 9 9 9 9 9 9 9 9 9 9 9 9 9 9 9 9 9 9 9 9 9 9 9 9 9 9 9 9 9 9 9 9 9 9 9 9 9 9 9 9 7 8 4 - % @ o     ",
"    o @ % - 4 8 7 9 9 9 9 9 9 9 9 9 9 9 9 9 9 9 9 9 9 9 9 9 9 9 9 9 9 9 9 9 9 9 9 9 9 9 9 9 9 9 9 9 9 9 9 9 9 7 8 4 - % @ o     ",
"    o @ % - 4 8 7 9 9 9 9 9 9 9 9 9 9 9 9 9 9 9 9 9 9 9 9 9 9 9 9 9 9 9 9 9 9 9 9 9 9 9 9 9 9 9 9 9 9 9 9 9 9 7 8 4 - % @ o     ",
"    o @ % - 4 8 7 9 9 9 9 9 9 9 9 9 9 9 9 9 9 9 9 9 9 9 9 9 9 9 9 9 9 9 9 9 9 9 9 9 9 9 9 9 9 9 9 9 9 9 9 9 9 7 8 4 - % @ o     ",
"    o @ % - 4 8 7 9 9 9 9 9 9 9 9 9 9 9 9 9 9 9 9 9 9 9 9 9 9 9 9 9 9 9 9 9 9 9 9 9 9 9 9 9 9 9 9 9 9 9 9 9 9 7 8 4 - % @ o     ",
"    o @ % - 4 8 7 9 9 9 9 9 9 9 9 9 9 9 9 9 9 9 9 9 9 9 9 9 9 9 9 9 9 9 9 9 9 9 9 9 9 9 9 9 9 9 9 9 9 9 9 9 9 7 8 4 - % @ o     ",
"    o @ % - < 8 7 9 9 9 9 9 9 9 9 9 9 9 9 9 9 9 9 9 9 9 9 9 9 9 9 9 9 9 9 9 9 9 9 9 9 9 9 9 9 9 9 9 9 9 9 9 9 7 8 4 - % @ o     ",
"    o @ % - 4 8 7 9 9 9 9 9 9 9 9 9 9 9 9 9 9 9 0 q 0 0 0 0 0 0 0 0 0 0 0 0 q 0 9 9 9 9 9 9 9 9 9 9 9 9 9 9 9 7 8 4 - % @ o     ",
"    o @ % - 4 8 7 9 9 9 9 9 9 9 9 9 9 9 9 9 9 w e r t y y y y y y y y y y y u i p 9 9 9 9 9 9 9 9 9 9 9 9 9 9 7 8 4 - % @ o     ",
"    o @ % - 4 8 7 9 9 9 9 9 9 9 9 9 9 9 9 9 a s d f g h j j j j j j j j j j k l z 9 9 9 9 9 9 9 9 9 9 9 9 9 9 7 8 4 - % @ o     ",
"    o @ % - 4 8 7 9 9 9 9 9 9 9 9 9 9 9 9 9 a s x f c v b b b b b b b b b b n m M 9 9 9 9 9 9 9 9 9 9 9 9 9 9 7 8 4 - % @ o     ",
"    o @ % - 4 8 7 9 9 9 9 9 9 9 9 9 9 9 9 9 a s x f N B V V V V V V V V V V V C 9 9 9 9 9 9 9 9 9 9 9 9 9 9 9 7 8 4 - % @ o     ",
"    o @ % - 4 8 7 9 9 9 9 9 9 9 9 9 9 9 9 9 a s x f Z 7 9 9 9 9 9 9 9 9 9 9 9 9 9 9 9 9 9 9 9 9 9 9 9 9 9 9 9 7 8 4 - % @ o     ",
"    o @ % - 4 8 7 9 9 9 9 9 9 9 9 9 9 9 9 9 a s x f A S D D D D D D D D D D D w M 9 9 9 9 9 9 9 9 9 9 9 9 9 9 7 8 4 - % @ o     ",
"    o @ % - 4 8 7 9 9 9 9 9 9 9 9 9 9 9 9 9 a s F f G H J J J K K J J J J J x L P C 9 9 9 9 9 9 9 9 9 9 9 9 9 7 8 4 - % @ o     ",
"    o @ % - 4 8 7 9 9 9 9 9 9 9 9 9 9 9 9 9 9 I l U Y T T U R f E W Q T T T ! ~ ^ C 9 9 9 9 9 9 9 9 9 9 9 9 9 7 8 4 - % @ o     ",
"    o @ % - 4 8 7 9 9 9 9 9 9 9 9 9 9 9 9 9 9 / ^ ( ) ) ) _ ` g ' ] [ ) ) ) { } 0 9 9 9 9 9 9 9 9 9 9 9 9 9 9 7 8 4 - % @ o     ",
"    o @ % - 4 8 7 9 9 9 9 9 9 9 9 9 9 9 9 V 7 7 7 B 7 7 7 6 |  ...) 6 7 7 7 B 7 7 7 C 9 9 9 9 9 9 9 9 9 9 9 9 7 8 4 - % @ o     ",
"    o @ % - 4 8 7 9 9 9 9 9 9 9 9 9 9 9 V X.o.O.O.O.O.O.O.+.@.#.$.%.&.O.O.O.O.O.O.*.=.V 9 9 9 9 9 9 9 9 9 9 9 7 8 4 - % @ o     ",
"    o @ % - 4 8 7 9 9 9 9 9 9 9 9 9 9 9 7 -.f ;.;.;.;.;.;.;.;.:.:.;.;.;.;.;.;.;.;.>.,.7 9 9 9 9 9 9 9 9 9 9 9 7 8 4 - % @ o     ",
"    o @ % - 4 8 7 9 9 9 9 9 9 9 9 9 9 9 C <.1.2.2.2.2.2.3.4.5.Z Z 5.4.3.2.2.2.2.2.3.6.C 9 9 9 9 9 9 9 9 9 9 9 7 8 4 - % @ o     ",
"    o @ % - 4 8 7 9 9 9 9 9 9 9 9 9 9 9 9 V 7 7 7 7 B B 0 7.8.9.n 0.q.9 6 B 7 7 7 7 V 9 9 9 9 9 9 9 9 9 9 9 9 7 8 4 - % @ o     ",
"    o @ % - 4 8 7 9 9 9 9 9 9 9 9 9 9 9 9 9 9 9 C S w.%.e.r.h t.y.u.i.p.a.s.9 C 9 9 9 9 9 9 9 9 9 9 9 9 9 9 9 7 8 4 - % @ o     ",
"    o @ % - 4 8 7 9 9 9 9 9 9 9 9 9 9 9 9 9 9 C d.f.g ;.T g.h.1 j.k.l.z.f x.c.D a 9 9 9 9 9 9 9 9 9 9 9 9 9 9 7 8 4 - % @ o     ",
"    o @ % - 4 8 7 9 9 9 9 9 9 9 9 9 9 9 9 9 9 9 v.f U b.n.w 9 V V 9 m.b O.M.N.B.V.9 9 9 9 9 9 9 9 9 9 9 9 9 9 7 8 4 - % @ o     ",
"    o @ % - 4 8 7 9 9 9 9 9 9 9 9 9 9 9 9 9 C C.Z.f A.B V 9 9 9 9 9 9 V V.S.f p.z 9 9 9 9 9 9 9 9 9 9 9 9 9 9 7 8 4 - % @ o     ",
"    o @ % - 4 8 7 9 9 9 9 9 9 9 9 9 9 9 9 9 C D.F.>.G.B C 9 9 9 9 9 9 C B H.f J.w 9 9 9 9 9 9 9 9 9 9 9 9 9 9 7 8 4 - % @ o     ",
"    o @ % - 4 8 7 9 9 9 9 9 9 9 9 9 9 9 9 9 9 / K.f L.P.I.9 V.V.V.V.M C.U.T f &.V 9 9 9 9 9 9 9 9 9 9 9 9 9 9 7 8 4 - % @ o     ",
"    o @ % - 4 8 7 9 9 9 9 9 9 9 9 9 9 9 9 9 9 V Y.T.R.E.W.Q.!.~.^./.(.).R._.`.'.C 9 9 9 9 9 9 9 9 9 9 9 9 9 9 7 8 4 - % @ o     ",
"    o @ % - 4 8 7 9 9 9 9 9 9 9 9 9 9 9 9 9 9 9 V ].3.(.[.{._.}.}.|. X.XXXoXw C 9 9 9 9 9 9 9 9 9 9 9 9 9 9 9 7 8 4 - % @ o     ",
"    o @ % - 4 8 7 9 9 9 9 9 9 9 9 9 9 9 9 9 9 9 9 C V.0 OX+X@X#X$X%X&X7.9 V.a 9 9 9 9 9 9 9 9 9 9 9 9 9 9 9 9 7 8 4 - % @ o     ",
"    o @ % - 4 8 7 9 9 9 9 9 9 9 9 9 9 9 9 9 9 9 9 9 9 9 C *XV.V.V.V.V C 9 9 9 9 9 9 9 9 9 9 9 9 9 9 9 9 9 9 9 7 8 4 - % @ o     ",
"    o @ % - < 8 7 9 9 9 9 9 9 9 9 9 9 9 9 9 9 9 9 9 9 9 9 9 9 9 9 9 9 9 9 9 9 9 9 9 9 9 9 9 9 9 9 9 9 9 9 9 9 7 8 4 - % @ o     ",
"    o @ % - 4 8 7 9 9 9 9 9 9 9 9 9 9 9 9 9 9 9 9 9 9 9 9 9 9 9 9 9 9 9 9 9 9 9 9 9 9 9 9 9 9 9 9 9 9 9 9 9 9 7 8 4 - % @ o     ",
"    o @ % - 4 8 7 9 9 9 9 9 9 9 9 9 9 9 9 9 9 9 9 9 9 9 9 9 9 9 9 9 9 9 9 9 9 9 9 9 9 9 9 9 9 9 9 9 9 9 9 9 9 7 8 4 - % @ o     ",
"    o @ % - 4 8 7 9 9 9 9 9 9 9 9 9 9 9 9 9 9 9 9 9 9 9 9 9 9 9 9 9 9 9 9 9 9 9 9 9 9 9 9 9 9 9 9 9 9 9 9 9 9 7 8 4 - % @ o     ",
"    o @ % - 4 8 7 9 9 9 9 9 9 9 9 9 9 9 9 9 9 9 9 9 9 9 9 9 9 9 9 9 9 9 9 9 9 9 9 9 9 9 9 9 9 9 9 9 9 9 9 9 9 7 8 4 - % @ o     ",
"    o @ % - 4 8 7 9 9 9 9 9 9 9 9 9 9 9 9 9 9 9 9 9 9 9 9 9 9 9 9 9 9 9 9 9 9 9 9 9 9 9 9 9 9 9 9 9 9 9 9 9 9 7 8 4 - % @ o     ",
"    o @ % - 4 8 7 9 9 9 9 9 9 9 9 9 9 9 9 9 9 9 9 9 9 9 9 9 9 9 9 9 9 9 9 9 9 9 9 9 9 9 9 9 9 9 9 9 9 9 9 9 9 7 8 4 - % @ o     ",
"    o @ % - 4 8 7 9 9 9 9 9 9 9 9 9 9 9 9 9 9 9 9 9 9 9 9 9 9 9 9 9 9 9 9 9 9 9 9 9 9 9 9 9 9 9 9 9 9 9 9 9 9 7 8 4 - % @ o     ",
"    o @ % - 4 8 7 9 9 9 9 9 9 9 9 9 9 9 9 9 9 9 9 9 9 9 9 9 9 9 9 9 9 9 9 9 9 9 9 9 9 9 9 9 9 9 9 9 9 9 9 9 9 7 8 4 - % @ o     ",
"    o @ % - 4 8 7 9 9 9 9 9 9 9 9 9 9 9 9 9 9 9 9 9 9 9 9 9 9 9 9 9 9 9 9 9 9 9 9 9 9 9 9 9 9 9 9 9 9 9 9 9 9 7 8 4 - % @ o     ",
"    o @ % - 4 5 6 7 7 7 7 7 7 7 7 7 7 7 7 7 7 7 7 7 7 7 7 7 7 7 7 7 7 7 7 7 7 7 7 7 7 7 7 7 7 7 7 7 7 7 7 7 7 6 5 4 - % @ o     ",
"    o @ % - =X-XA ;X;X;X;X;X;X;X;X;X;X;X;X;X;X;X;X;X;X;X;X;X;X;X;X;X;X;X;X;X;X;X;X;X;X;X;X;X;X;X;X;X;X;X;X;X;XA -X=X- % @ o     ",
"    o @ % = :X>X,X,X,X,X,X,X,X,X,X,X,X,X,X,X,X,X,X,X,X,X,X,X,X,X,X,X,X,X,X,X,X,X,X,X,X,X,X,X,X,X,X,X,X,X,X,X,X,X>X:X= % @ o     ",
"    o @ $ * <X1X2X1X1X1X1X2X2X1X1X2X2X2X2X2X1X2X2X2X1X1X2X2X2X1X2X2X2X1X1X1X1X2X2X1X1X2X2X2X2X2X1X2X2X2X1X1X2X2X1X<X* $ @ o     ",
"    X + # $ % & & & & & & & & & & & & & & & & & & & & & & & & & & & & & & & & & & & & & & & & & & & & & & & & & & % $ # + X     ",
"    . O + @ @ @ @ @ @ @ @ @ @ @ @ @ @ @ @ @ @ @ @ @ @ @ @ @ @ @ @ @ @ @ @ @ @ @ @ @ @ @ @ @ @ @ @ @ @ @ @ @ @ @ @ @ @ + O .     ",
"    . . X o o o o o o o o o o o o o o o o o o o o o o o o o o o o o o o o o o o o o o o o o o o o o o o o o o o o o o X . .     ",
"                                                                                                                                ",
"                                                                                                                                "
};
