/* XPM */
static char *_36b59d49ce04adda881018f688134bfLhznF7TBViEMeu0H[] = {
/* columns rows colors chars-per-pixel */
"64 64 133 2 ",
"   c black",
".  c #88FF8F",
"X  c #88FF8E",
"o  c #86FF8C",
"O  c #85FF8C",
"+  c #88FF8E",
"@  c #85FF8C",
"#  c #85FF8C",
"$  c #81FF88",
"%  c None",
"&  c #80FF87",
"*  c #7FFF86",
"=  c #80FF87",
"-  c #81FF88",
";  c #69D46F",
":  c #4C9750",
">  c #4C9950",
",  c #69D36F",
"<  c #49914D",
"1  c #426C42",
"2  c #68AA68",
"3  c #66A766",
"4  c #49924D",
"5  c #67A967",
"6  c #A0FFA0",
"7  c #9EFF9E",
"8  c #66A666",
"9  c #9BFE9B",
"0  c #9CFF9C",
"q  c #9DFF9D",
"w  c #82D582",
"e  c #73BD73",
"r  c #8BE38B",
"t  c #88DF88",
"y  c #84D884",
"u  c #9AFD9A",
"i  c #3A603A",
"p  c #020302",
"a  c #5C975C",
"s  c #528652",
"d  c #010201",
"f  c #416A41",
"g  c #9BFF9B",
"h  c #365936",
"j  c black",
"k  c #5A935A",
"l  c #4F824F",
"z  c #3D643D",
"x  c #375A37",
"c  c #243A24",
"v  c #3F673F",
"b  c #3E653E",
"n  c #3E663E",
"m  c #1F331F",
"M  c #070C07",
"N  c #0D160D",
"B  c #0D150D",
"V  c #070B07",
"C  c #4D7D4D",
"Z  c #87DD87",
"A  c #85D985",
"S  c #87DC87",
"D  c #446F44",
"F  c #5C965C",
"G  c #A2FFA2",
"H  c #9FFF9F",
"J  c #A1FFA1",
"K  c #518551",
"L  c #6BAF6B",
"P  c #69AC69",
"I  c #365836",
"U  c #010101",
"Y  c #9BFD9B",
"T  c #73BC73",
"R  c #5D995D",
"E  c #76C176",
"W  c #78C478",
"Q  c #4B7C4B",
"!  c #4C7D4C",
"~  c #4D7E4D",
"^  c #80D280",
"/  c #578F57",
"(  c #020402",
")  c #040604",
"_  c #89E089",
"`  c #72BB72",
"'  c #74BD74",
"]  c #5C985C",
"[  c #060B06",
"{  c #101A10",
"}  c #66A866",
"|  c #8DE88D",
" . c #81D381",
".. c #090F09",
"X. c #162416",
"o. c #8FEA8F",
"O. c #95F595",
"+. c #7FD17F",
"@. c #7ECE7E",
"#. c #7FD07F",
"$. c #111C11",
"%. c #71B971",
"&. c #7ECF7E",
"*. c #7DCD7D",
"=. c #86DC86",
"-. c #080D08",
";. c #060A06",
":. c #090E09",
">. c #345634",
",. c #98F998",
"<. c #89E189",
"1. c #467346",
"2. c #416B41",
"3. c #284228",
"4. c #2D492D",
"5. c #98F898",
"6. c #619F61",
"7. c #2D4A2D",
"8. c #609E60",
"9. c #609D60",
"0. c #62A162",
"q. c #304F30",
"w. c #8BE48B",
"e. c #7DCE7D",
"r. c #48904C",
"t. c #426B42",
"y. c #65A665",
"u. c #61C266",
"i. c #39723C",
"p. c #3A733D",
"a. c #7EFE85",
"s. c #7DFB84",
"d. c white",
/* pixels */
"                                                                                                                                ",
"                                                                                                                                ",
"    . X o O O O O O O O O O O O O O O O O O O O O O O O O O O O O O O O O O O O O O O O O O O O O O O O O O O O O O O o X .     ",
"    X + @ # # # # # # # # # # # # # # # # # # # # # # # # # # # # # # # # # # # # # # # # # # # # # # # # # # # # # # @ + X     ",
"    o @ $ % & & & & & & & & & & & & & & & & & & & & & & & & & & & & & & & & & & & & & & & & & & & & & & & & & & & & % $ @ o     ",
"    O # % * = - - - - - - - - - - - - - - - - - - - - - - - - - - - - - - - - - - - - - - - - - - - - - - - - - - = * % # O     ",
"    O # & = ; : > > > > > > > > > > > > > > > > > > > > > > > > > > > > > > > > > > > > > > > > > > > > > > > > : , = & # O     ",
"    O # & - < 1 2 3 3 3 3 3 3 3 3 3 3 3 3 3 3 3 3 3 3 3 3 3 3 3 3 3 3 3 3 3 3 3 3 3 3 3 3 3 3 3 3 3 3 3 3 3 3 2 1 < - & # O     ",
"    O # & - 4 5 6 7 7 7 7 7 7 7 7 7 7 7 7 7 7 7 7 7 7 7 7 7 7 7 7 7 7 7 7 7 7 7 7 7 7 7 7 7 7 7 7 7 7 7 7 7 7 6 5 4 - & # O     ",
"    O # & - 4 8 7 9 9 9 9 9 9 9 9 9 9 9 9 9 9 9 9 9 9 9 9 9 9 9 9 9 9 9 9 9 9 9 9 9 9 9 9 9 9 9 9 9 9 9 9 9 9 7 8 4 - & # O     ",
"    O # & - 4 8 7 9 9 9 9 9 9 9 9 9 9 9 9 9 9 9 9 9 9 9 9 9 9 9 9 9 9 9 9 9 9 9 9 9 9 9 9 9 9 9 9 9 9 9 9 9 9 7 8 4 - & # O     ",
"    O # & - 4 8 7 9 9 9 9 9 9 9 9 9 9 9 9 9 9 9 9 9 9 9 9 9 9 9 9 9 9 9 9 9 9 9 9 9 9 9 9 9 9 9 9 9 9 9 9 9 9 7 8 4 - & # O     ",
"    O # & - 4 8 7 9 9 9 9 9 9 9 9 9 9 9 9 9 9 9 9 9 9 9 9 9 9 9 9 9 9 9 9 9 9 9 9 9 9 9 9 9 9 9 9 9 9 9 9 9 9 7 8 4 - & # O     ",
"    O # & - 4 8 7 9 9 9 9 9 9 9 9 9 9 9 9 9 9 9 9 9 9 9 9 9 9 9 9 9 9 9 9 9 9 9 9 9 9 9 9 9 9 9 9 9 9 9 9 9 9 7 8 4 - & # O     ",
"    O # & - 4 8 7 9 9 9 9 9 9 9 9 9 9 9 9 9 9 9 9 9 9 9 9 9 9 9 9 9 9 9 9 9 9 9 9 9 9 9 9 9 9 9 9 9 9 9 9 9 9 7 8 4 - & # O     ",
"    O # & - 4 8 7 9 9 9 9 9 9 9 9 9 9 9 9 9 9 9 9 9 9 9 9 9 9 9 9 9 9 9 9 9 9 9 9 9 9 9 9 9 9 9 9 9 9 9 9 9 9 7 8 4 - & # O     ",
"    O # & - 4 8 7 9 9 9 9 9 9 9 9 9 9 9 9 9 9 9 9 9 9 9 9 9 9 9 9 9 9 9 9 9 9 9 9 9 9 9 9 9 9 9 9 9 9 9 9 9 9 7 8 4 - & # O     ",
"    O # & - 4 8 7 9 9 9 9 9 9 9 9 9 9 9 9 9 9 9 9 9 9 9 9 9 9 9 9 9 9 9 9 9 9 9 9 9 9 9 9 9 9 9 9 9 9 9 9 9 9 7 8 4 - & # O     ",
"    O # & - 4 8 7 9 9 9 9 9 9 9 9 9 9 9 9 9 9 9 9 9 9 9 9 9 9 9 9 9 9 9 9 9 9 9 9 9 9 9 9 9 9 9 9 9 9 9 9 9 9 7 8 4 - & # O     ",
"    O # & - 4 8 7 9 9 9 9 9 9 9 9 9 9 9 9 9 9 9 0 q 0 9 9 9 9 9 9 9 9 9 9 0 q 0 9 9 9 9 9 9 9 9 9 9 9 9 9 9 9 7 8 4 - & # O     ",
"    O # & - 4 8 7 9 9 9 9 9 9 9 9 9 9 9 9 9 9 9 w e r 0 9 9 9 9 9 9 9 9 0 t e y 9 9 9 9 9 9 9 9 9 9 9 9 9 9 9 7 8 4 - & # O     ",
"    O # & - 4 8 7 9 9 9 9 9 9 9 9 9 9 9 9 9 9 u i p a 7 9 9 9 9 9 9 9 9 q s d f g 9 9 9 9 9 9 9 9 9 9 9 9 9 9 7 8 4 - & # O     ",
"    O # & - 4 8 7 9 9 9 9 9 9 9 9 9 9 9 9 9 9 u h j k 7 0 0 0 0 0 0 0 0 7 l j z 0 9 9 9 9 9 9 9 9 9 9 9 9 9 9 7 8 4 - & # O     ",
"    O # & - 4 8 7 9 9 9 9 9 9 9 9 9 9 9 9 9 9 u x j c v b b b b b b b b n m j z 0 9 9 9 9 9 9 9 9 9 9 9 9 9 9 7 8 4 - & # O     ",
"    O # & - 4 8 7 9 9 9 9 9 9 9 9 9 9 9 9 9 9 u x j M N B B B B B B B B B V j z 0 9 9 9 9 9 9 9 9 9 9 9 9 9 9 7 8 4 - & # O     ",
"    O # & - 4 8 7 9 9 9 9 9 9 9 9 9 9 9 9 9 9 u x j C Z A A A A A A A A S D j z 0 9 9 9 9 9 9 9 9 9 9 9 9 9 9 7 8 4 - & # O     ",
"    O # & - 4 8 7 9 9 9 9 9 9 9 9 9 9 9 9 9 9 u x j F G H H H H H H H H J K j z 0 9 9 9 9 9 9 9 9 9 9 9 9 9 9 7 8 4 - & # O     ",
"    O # & - 4 8 7 9 9 9 9 9 9 9 9 9 9 9 9 9 9 u x j z L P P P P P P P P L I j z 0 9 9 9 9 9 9 9 9 9 9 9 9 9 9 7 8 4 - & # O     ",
"    O # & - 4 8 7 9 9 9 9 9 9 9 9 9 9 9 9 9 9 u h j U p p p p p p p p p p U j z 0 9 9 9 9 9 9 9 9 9 9 9 9 9 9 7 8 4 - & # O     ",
"    O # & - 4 8 7 9 9 9 9 9 9 9 9 9 9 9 9 9 9 Y T a R R R R R R R R R R R R a E 9 9 9 9 9 9 9 9 9 9 9 9 9 9 9 7 8 4 - & # O     ",
"    O # & - 4 8 7 9 9 9 9 9 9 9 9 9 9 9 9 0 q q H 6 6 6 6 6 6 6 6 6 6 6 6 6 6 H q q 0 9 9 9 9 9 9 9 9 9 9 9 9 7 8 4 - & # O     ",
"    O # & - 4 8 7 9 9 9 9 9 9 9 9 9 9 9 0 W Q ! ! ! ! ! ! ! ! ! ! ! ! ! ! ! ! ! ! ~ ^ 0 9 9 9 9 9 9 9 9 9 9 9 7 8 4 - & # O     ",
"    O # & - 4 8 7 9 9 9 9 9 9 9 9 9 9 9 q / d ( ( ( ( ( ( ( p j j p ( ( ( ( ( ( ( ) 2 7 9 9 9 9 9 9 9 9 9 9 9 7 8 4 - & # O     ",
"    O # & - 4 8 7 9 9 9 9 9 9 9 9 9 9 9 0 _ ` ` ` ` ` ` ` ' ] [ { } T ` ` ` ` ` ` T | 0 9 9 9 9 9 9 9 9 9 9 9 7 8 4 - & # O     ",
"    O # & - 4 8 7 9 9 9 9 9 9 9 9 9 9 9 9 0 q 7 H H H H H J  ...X.o.6 H H H H H q q 0 9 9 9 9 9 9 9 9 9 9 9 9 7 8 4 - & # O     ",
"    O # & - 4 8 7 9 9 9 9 9 9 9 9 9 9 9 9 9 g O.+.@.@.@.@.#.3 M $.%.&.@.@.@.*.=.u 9 9 9 9 9 9 9 9 9 9 9 9 9 9 7 8 4 - & # O     ",
"    O # & - 4 8 7 9 9 9 9 9 9 9 9 9 9 9 9 9 q @.$.M -.-.-.-.;.j j V -.-.-.:.-.>.,.9 9 9 9 9 9 9 9 9 9 9 9 9 9 7 8 4 - & # O     ",
"    O # & - 4 8 7 9 9 9 9 9 9 9 9 9 9 9 9 9 0 <.1.f f f f f f 2.2.f f f 1 3.j 4.5.9 9 9 9 9 9 9 9 9 9 9 9 9 9 7 8 4 - & # O     ",
"    O # & - 4 8 7 9 9 9 9 9 9 9 9 9 9 9 9 9 9 9 0 0 0 0 0 0 0 0 0 0 0 0 H 6.j 7.5.9 9 9 9 9 9 9 9 9 9 9 9 9 9 7 8 4 - & # O     ",
"    O # & - 4 8 7 9 9 9 9 9 9 9 9 9 9 9 9 9 9 9 9 9 9 9 9 9 9 9 9 9 9 9 7 8.j 7.5.9 9 9 9 9 9 9 9 9 9 9 9 9 9 7 8 4 - & # O     ",
"    O # & - 4 8 7 9 9 9 9 9 9 9 9 9 9 9 9 9 9 9 9 9 9 9 9 9 9 9 9 9 9 9 7 8.j 7.5.9 9 9 9 9 9 9 9 9 9 9 9 9 9 7 8 4 - & # O     ",
"    O # & - 4 8 7 9 9 9 9 9 9 9 9 9 9 9 9 9 9 9 9 9 9 9 9 9 9 9 9 9 9 9 7 9.j 4.5.9 9 9 9 9 9 9 9 9 9 9 9 9 9 7 8 4 - & # O     ",
"    O # & - 4 8 7 9 9 9 9 9 9 9 9 9 9 9 9 9 9 9 9 9 9 9 9 9 9 9 9 9 9 9 7 0.( q.,.9 9 9 9 9 9 9 9 9 9 9 9 9 9 7 8 4 - & # O     ",
"    O # & - 4 8 7 9 9 9 9 9 9 9 9 9 9 9 9 9 9 9 9 9 9 9 9 9 9 9 9 9 9 9 0 w.%.e.u 9 9 9 9 9 9 9 9 9 9 9 9 9 9 7 8 4 - & # O     ",
"    O # & - 4 8 7 9 9 9 9 9 9 9 9 9 9 9 9 9 9 9 9 9 9 9 9 9 9 9 9 9 9 9 9 0 q q 9 9 9 9 9 9 9 9 9 9 9 9 9 9 9 7 8 4 - & # O     ",
"    O # & - 4 8 7 9 9 9 9 9 9 9 9 9 9 9 9 9 9 9 9 9 9 9 9 9 9 9 9 9 9 9 9 9 9 9 9 9 9 9 9 9 9 9 9 9 9 9 9 9 9 7 8 4 - & # O     ",
"    O # & - 4 8 7 9 9 9 9 9 9 9 9 9 9 9 9 9 9 9 9 9 9 9 9 9 9 9 9 9 9 9 9 9 9 9 9 9 9 9 9 9 9 9 9 9 9 9 9 9 9 7 8 4 - & # O     ",
"    O # & - 4 8 7 9 9 9 9 9 9 9 9 9 9 9 9 9 9 9 9 9 9 9 9 9 9 9 9 9 9 9 9 9 9 9 9 9 9 9 9 9 9 9 9 9 9 9 9 9 9 7 8 4 - & # O     ",
"    O # & - 4 8 7 9 9 9 9 9 9 9 9 9 9 9 9 9 9 9 9 9 9 9 9 9 9 9 9 9 9 9 9 9 9 9 9 9 9 9 9 9 9 9 9 9 9 9 9 9 9 7 8 4 - & # O     ",
"    O # & - 4 8 7 9 9 9 9 9 9 9 9 9 9 9 9 9 9 9 9 9 9 9 9 9 9 9 9 9 9 9 9 9 9 9 9 9 9 9 9 9 9 9 9 9 9 9 9 9 9 7 8 4 - & # O     ",
"    O # & - 4 8 7 9 9 9 9 9 9 9 9 9 9 9 9 9 9 9 9 9 9 9 9 9 9 9 9 9 9 9 9 9 9 9 9 9 9 9 9 9 9 9 9 9 9 9 9 9 9 7 8 4 - & # O     ",
"    O # & - 4 8 7 9 9 9 9 9 9 9 9 9 9 9 9 9 9 9 9 9 9 9 9 9 9 9 9 9 9 9 9 9 9 9 9 9 9 9 9 9 9 9 9 9 9 9 9 9 9 7 8 4 - & # O     ",
"    O # & - 4 8 7 9 9 9 9 9 9 9 9 9 9 9 9 9 9 9 9 9 9 9 9 9 9 9 9 9 9 9 9 9 9 9 9 9 9 9 9 9 9 9 9 9 9 9 9 9 9 7 8 4 - & # O     ",
"    O # & - 4 8 7 9 9 9 9 9 9 9 9 9 9 9 9 9 9 9 9 9 9 9 9 9 9 9 9 9 9 9 9 9 9 9 9 9 9 9 9 9 9 9 9 9 9 9 9 9 9 7 8 4 - & # O     ",
"    O # & - 4 8 7 9 9 9 9 9 9 9 9 9 9 9 9 9 9 9 9 9 9 9 9 9 9 9 9 9 9 9 9 9 9 9 9 9 9 9 9 9 9 9 9 9 9 9 9 9 9 7 8 4 - & # O     ",
"    O # & - 4 5 6 7 7 7 7 7 7 7 7 7 7 7 7 7 7 7 7 7 7 7 7 7 7 7 7 7 7 7 7 7 7 7 7 7 7 7 7 7 7 7 7 7 7 7 7 7 7 6 5 4 - & # O     ",
"    O # & - r.t.5 y.y.y.y.y.y.y.y.y.y.y.y.y.y.y.y.y.y.y.y.y.y.y.y.y.y.y.y.y.y.y.y.y.y.y.y.y.y.y.y.y.y.y.y.y.y.5 t.r.- & # O     ",
"    O # & = u.i.p.p.p.p.p.p.p.p.p.p.p.p.p.p.p.p.p.p.p.p.p.p.p.p.p.p.p.p.p.p.p.p.p.p.p.p.p.p.p.p.p.p.p.p.p.p.p.p.i.u.= & # O     ",
"    O # % * a.s.s.s.s.s.s.s.s.s.s.s.s.s.s.s.s.s.s.s.s.s.s.s.s.s.s.s.s.s.s.s.s.s.s.s.s.s.s.s.s.s.s.s.s.s.s.s.s.s.s.a.* % # O     ",
"    o @ $ % & & & & & & & & & & & & & & & & & & & & & & & & & & & & & & & & & & & & & & & & & & & & & & & & & & & & % $ @ o     ",
"    X + @ # # # # # # # # # # # # # # # # # # # # # # # # # # # # # # # # # # # # # # # # # # # # # # # # # # # # # # @ + X     ",
"    X X o O O O O O O O O O O O O O O O O O O O O O O O O O O O O O O O O O O O O O O O O O O O O O O O O O O O O O O o X X     ",
"                                                                                                                                ",
"                                                                                                                                "
};
