/* XPM */
static char *_b710587b19d499fa7b374d5baf34fbbkiIF2euzgPv4Mj6R[] = {
/* columns rows colors chars-per-pixel */
"64 64 152 2 ",
"   c black",
".  c #FF8888",
"X  c #FF8686",
"o  c #FF8585",
"O  c #FF8888",
"+  c #FF8585",
"@  c #FF8585",
"#  c #FF8181",
"$  c None",
"%  c #FF8080",
"&  c #FF7F7F",
"*  c #FF8080",
"=  c #FF8181",
"-  c #D46969",
";  c #974C4C",
":  c #994C4C",
">  c #D36969",
",  c #914949",
"<  c #6C4942",
"1  c #AA7268",
"2  c #A77066",
"3  c #924949",
"4  c #A97167",
"5  c #FFB0A0",
"6  c #FFAD9E",
"7  c #A67066",
"8  c #FEAA9B",
"9  c #FBA899",
"0  c #F9A798",
"q  c #FCA99A",
"w  c #FFAA9B",
"e  c #FFAB9C",
"r  c #845851",
"t  c #49312C",
"y  c #B67A6F",
"u  c #FFAC9D",
"i  c #CB887C",
"p  c #6A4740",
"a  c #916158",
"s  c #FAA899",
"d  c #4D332F",
"f  c black",
"g  c #96645B",
"h  c #A56E65",
"j  c #3E2A26",
"k  c #F6A496",
"l  c #4F3530",
"z  c #97655C",
"x  c #A76F66",
"c  c #412C28",
"v  c #F6A596",
"b  c #9A675E",
"n  c #FFAFA0",
"m  c #FFAD9D",
"M  c #865A52",
"N  c #825750",
"B  c #A36D64",
"V  c #FAA798",
"C  c #010000",
"Z  c #010101",
"A  c #F5A496",
"S  c #694640",
"D  c #B3786D",
"F  c #AE756B",
"G  c #C48377",
"H  c #422C29",
"J  c #F3A394",
"K  c #E19789",
"L  c #CF8B7E",
"P  c #2E1F1C",
"I  c #AB7369",
"U  c #AD7469",
"Y  c #A46E64",
"T  c #98665D",
"R  c #704B45",
"E  c #563A35",
"W  c #3A2723",
"Q  c #1D1412",
"!  c #1E1412",
"~  c #D28D80",
"^  c #FDA99A",
"/  c #A56F65",
"(  c #040302",
")  c #0E0A09",
"_  c #211614",
"`  c #3C2825",
"'  c #DF9588",
"]  c #FFAC9C",
"[  c #D18C7F",
"{  c #7C534C",
"}  c #7B524B",
"|  c #82574F",
" . c #8A5D54",
".. c #BB7D72",
"X. c #D08B7F",
"o. c #E4988B",
"O. c #F4A395",
"+. c #543833",
"@. c #B87B70",
"#. c #E2978A",
"$. c #E89B8D",
"%. c #875A52",
"&. c #7F554E",
"*. c #80564E",
"=. c #110B0A",
"-. c #050403",
";. c #070404",
":. c #96645C",
">. c #D38D80",
",. c #130D0B",
"<. c #160F0E",
"1. c #C28276",
"2. c #C08175",
"3. c #BF8075",
"4. c #442E2A",
"5. c #120C0B",
"6. c #1E1413",
"7. c #E3988A",
"8. c #FFAE9E",
"9. c #5B3D38",
"0. c #E09688",
"q. c #5A3C37",
"w. c #E09689",
"e. c #FDAA9B",
"r. c #5A3D37",
"t. c #1D1312",
"y. c #D79083",
"u. c #F3A294",
"i. c #573A35",
"p. c #110C0B",
"a. c #040202",
"s. c #342320",
"d. c #3C2824",
"f. c #3B2824",
"g. c #130D0C",
"h. c #96655C",
"j. c #DA9285",
"k. c #291B19",
"l. c #271A18",
"z. c #291C19",
"x. c #2A1C1A",
"c. c #EB9D8F",
"v. c #E99C8E",
"b. c #904848",
"n. c #6B4842",
"m. c #A66F65",
"M. c #C26161",
"N. c #723939",
"B. c #733A3A",
"V. c #FE7E7E",
"C. c #FB7D7D",
"Z. c white",
/* pixels */
"                                                                                                                                ",
"                                                                                                                                ",
"    . . X o o o o o o o o o o o o o o o o o o o o o o o o o o o o o o o o o o o o o o o o o o o o o o o o o o o o o o X . .     ",
"    . O + @ @ @ @ @ @ @ @ @ @ @ @ @ @ @ @ @ @ @ @ @ @ @ @ @ @ @ @ @ @ @ @ @ @ @ @ @ @ @ @ @ @ @ @ @ @ @ @ @ @ @ @ @ @ + O .     ",
"    X + # $ % % % % % % % % % % % % % % % % % % % % % % % % % % % % % % % % % % % % % % % % % % % % % % % % % % % % $ # + X     ",
"    o @ $ & * = = = = = = = = = = = = = = = = = = = = = = = = = = = = = = = = = = = = = = = = = = = = = = = = = = * & $ @ o     ",
"    o @ % * - ; : : : : : : : : : : : : : : : : : : : : : : : : : : : : : : : : : : : : : : : : : : : : : : : : ; > * % @ o     ",
"    o @ % = , < 1 2 2 2 2 2 2 2 2 2 2 2 2 2 2 2 2 2 2 2 2 2 2 2 2 2 2 2 2 2 2 2 2 2 2 2 2 2 2 2 2 2 2 2 2 2 2 1 < , = % @ o     ",
"    o @ % = 3 4 5 6 6 6 6 6 6 6 6 6 6 6 6 6 6 6 6 6 6 6 6 6 6 6 6 6 6 6 6 6 6 6 6 6 6 6 6 6 6 6 6 6 6 6 6 6 6 5 4 3 = % @ o     ",
"    o @ % = 3 7 6 8 8 8 8 8 8 8 8 8 8 8 8 8 8 8 8 8 8 8 8 8 8 8 8 8 8 8 8 8 8 8 8 8 8 8 8 8 8 8 8 8 8 8 8 8 8 6 7 3 = % @ o     ",
"    o @ % = 3 7 6 8 8 8 8 8 8 8 8 8 8 8 8 8 8 8 8 8 8 8 8 8 8 8 8 8 8 8 8 8 8 8 8 8 8 8 8 8 8 8 8 8 8 8 8 8 8 6 7 3 = % @ o     ",
"    o @ % = 3 7 6 8 8 8 8 8 8 8 8 8 8 8 8 8 8 8 8 8 8 8 8 8 8 8 8 8 8 8 8 8 8 8 8 8 8 8 8 8 8 8 8 8 8 8 8 8 8 6 7 3 = % @ o     ",
"    o @ % = 3 7 6 8 8 8 8 8 8 8 8 8 8 8 8 8 8 8 8 8 8 8 8 8 8 8 8 8 8 8 8 8 8 8 8 8 8 8 8 8 8 8 8 8 8 8 8 8 8 6 7 3 = % @ o     ",
"    o @ % = 3 7 6 8 8 8 8 8 8 8 8 8 8 8 8 8 8 8 8 8 8 8 8 8 8 8 8 8 8 8 8 8 8 8 8 8 8 8 8 8 8 8 8 8 8 8 8 8 8 6 7 3 = % @ o     ",
"    o @ % = 3 7 6 8 8 8 8 8 8 8 8 8 8 8 8 8 8 8 8 8 8 8 8 8 8 8 8 8 8 8 8 8 8 8 8 8 8 8 8 8 8 8 8 8 8 8 8 8 8 6 7 3 = % @ o     ",
"    o @ % = 3 7 6 8 8 8 8 8 8 8 8 8 8 8 8 8 8 8 8 8 8 8 8 8 8 8 8 8 8 8 8 8 8 8 8 8 8 8 8 8 8 8 8 8 8 8 8 8 8 6 7 3 = % @ o     ",
"    o @ % = 3 7 6 8 8 8 8 8 8 8 8 8 8 8 8 8 8 8 8 8 8 8 8 8 8 8 8 8 8 8 8 8 8 8 8 8 8 8 8 8 8 8 8 8 8 8 8 8 8 6 7 3 = % @ o     ",
"    o @ % = 3 7 6 8 8 8 8 8 8 8 8 8 8 8 8 8 8 8 8 8 8 8 8 8 8 8 8 8 8 8 8 8 8 8 8 8 8 8 8 8 8 8 8 8 8 8 8 8 8 6 7 3 = % @ o     ",
"    o @ % = 3 7 6 8 8 8 8 8 8 8 8 8 8 8 8 8 8 8 8 8 8 8 8 8 8 8 8 8 8 8 8 8 8 8 8 8 8 8 8 8 8 8 8 8 8 8 8 8 8 6 7 3 = % @ o     ",
"    o @ % = 3 7 6 8 8 8 8 8 8 8 8 8 8 8 8 8 8 8 8 8 8 8 8 8 8 8 8 8 8 8 8 9 0 q 8 8 8 8 8 8 8 8 8 8 8 8 8 8 8 6 7 3 = % @ o     ",
"    o @ % = 3 7 6 8 8 8 8 8 8 8 8 8 8 8 8 8 w e e 8 8 8 8 8 8 8 8 8 8 8 9 r t y u 8 8 8 8 8 8 8 8 8 8 8 8 8 8 6 7 3 = % @ o     ",
"    o @ % = 3 7 6 8 8 8 8 8 8 8 8 8 8 8 8 u i p a 0 8 8 8 8 8 8 8 8 8 8 s d f g 6 8 8 8 8 8 8 8 8 8 8 8 8 8 8 6 7 3 = % @ o     ",
"    o @ % = 3 7 6 8 8 8 8 8 8 8 8 8 8 8 8 6 h f j k 8 8 8 8 8 8 8 8 8 8 s l f z 6 8 8 8 8 8 8 8 8 8 8 8 8 8 8 6 7 3 = % @ o     ",
"    o @ % = 3 7 6 8 8 8 8 8 8 8 8 8 8 8 8 6 x f c v 8 8 8 8 8 8 8 8 8 8 s l f z 6 8 8 8 8 8 8 8 8 8 8 8 8 8 8 6 7 3 = % @ o     ",
"    o @ % = 3 7 6 8 8 8 8 8 8 8 8 8 8 8 8 6 x f c v 8 8 8 8 8 8 8 8 8 8 s l f b n m u 8 8 8 8 8 8 8 8 8 8 8 8 6 7 3 = % @ o     ",
"    o @ % = 3 7 6 8 8 8 8 8 8 8 8 8 8 8 8 6 x f c v 8 8 8 8 8 8 8 8 8 8 s l f l M N B V 8 8 8 8 8 8 8 8 8 8 8 6 7 3 = % @ o     ",
"    o @ % = 3 7 6 8 8 8 8 8 8 8 8 8 8 8 8 6 x f c v 8 8 8 8 8 8 8 8 8 8 s l f C Z f c A w 8 8 8 8 8 8 8 8 8 8 6 7 3 = % @ o     ",
"    o @ % = 3 7 6 8 8 8 8 8 8 8 8 8 8 8 8 6 x f c v 8 8 8 8 8 8 w e u w s l f S D F G 9 8 8 8 8 8 8 8 8 8 8 8 6 7 3 = % @ o     ",
"    o @ % = 3 7 6 8 8 8 8 8 8 8 8 8 8 8 8 6 x f H V 6 6 6 m e q J K L k 9 l f b 5 6 u 8 8 8 8 8 8 8 8 8 8 8 8 6 7 3 = % @ o     ",
"    o @ % = 3 7 6 8 8 8 8 8 8 8 8 8 8 8 8 6 x f P I U Y T M R E W Q ! ~ ^ l f z 6 8 8 8 8 8 8 8 8 8 8 8 8 8 8 6 7 3 = % @ o     ",
"    o @ % = 3 7 6 8 8 8 8 8 8 8 8 8 8 8 8 6 / f f Z f f f f ( ) _ ` S ' q l f z 6 8 8 8 8 8 8 8 8 8 8 8 8 8 8 6 7 3 = % @ o     ",
"    o @ % = 3 7 6 8 8 8 8 8 8 8 8 8 8 8 8 ] [ { } { |  .z 2 ..X.o.O.8 e s l f z 6 8 8 8 8 8 8 8 8 8 8 8 8 8 8 6 7 3 = % @ o     ",
"    o @ % = 3 7 6 8 8 8 8 8 8 8 8 8 8 8 8 8 e u u u u m 6 6 m u e w 8 8 9 +.Z b 6 8 8 8 8 8 8 8 8 8 8 8 8 8 8 6 7 3 = % @ o     ",
"    o @ % = 3 7 6 8 8 8 8 8 8 8 8 8 8 8 8 8 8 8 w u u u u u u u u u u u e X.@.#.e 8 8 8 8 8 8 8 8 8 8 8 8 8 8 6 7 3 = % @ o     ",
"    o @ % = 3 7 6 8 8 8 8 8 8 8 8 8 8 8 8 8 8 e $.%.{ { { { { { { { { { { &.*.i e 8 8 8 8 8 8 8 8 8 8 8 8 8 8 6 7 3 = % @ o     ",
"    o @ % = 3 7 6 8 8 8 8 8 8 8 8 8 8 8 8 8 8 u ~ =.f -.;.;.;.;.;.;.;.;.;.f f :.6 8 8 8 8 8 8 8 8 8 8 8 8 8 8 6 7 3 = % @ o     ",
"    o @ % = 3 7 6 8 8 8 8 8 8 8 8 8 8 8 8 8 8 u >.,.<.4 1.2.2.2.2.2.2.2.3.4.f z 6 8 8 8 8 8 8 8 8 8 8 8 8 8 8 6 7 3 = % @ o     ",
"    o @ % = 3 7 6 8 8 8 8 8 8 8 8 8 8 8 8 8 8 u >.5.6.7.8.u u u u u u m ] 9.f z 6 8 8 8 8 8 8 8 8 8 8 8 8 8 8 6 7 3 = % @ o     ",
"    o @ % = 3 7 6 8 8 8 8 8 8 8 8 8 8 8 8 8 8 u >.5.! 0.e 8 8 8 8 8 8 8 ^ q.f z 6 8 8 8 8 8 8 8 8 8 8 8 8 8 8 6 7 3 = % @ o     ",
"    o @ % = 3 7 6 8 8 8 8 8 8 8 8 8 8 8 8 8 8 u >.5.! w.u w w w w w w w e.r.f z 6 8 8 8 8 8 8 8 8 8 8 8 8 8 8 6 7 3 = % @ o     ",
"    o @ % = 3 7 6 8 8 8 8 8 8 8 8 8 8 8 8 8 8 u >.5.t.y.v O.O.O.O.O.O.O.u.i.f z 6 8 8 8 8 8 8 8 8 8 8 8 8 8 8 6 7 3 = % @ o     ",
"    o @ % = 3 7 6 8 8 8 8 8 8 8 8 8 8 8 8 8 8 u ~ p.a.s.` d.d.d.d.d.d.d.f.g.f h.6 8 8 8 8 8 8 8 8 8 8 8 8 8 8 6 7 3 = % @ o     ",
"    o @ % = 3 7 6 8 8 8 8 8 8 8 8 8 8 8 8 8 8 ] j.f.k.l.l.l.l.l.l.l.l.l.l.z.x.4 u 8 8 8 8 8 8 8 8 8 8 8 8 8 8 6 7 3 = % @ o     ",
"    o @ % = 3 7 6 8 8 8 8 8 8 8 8 8 8 8 8 8 8 8 s c.v.v.v.v.v.v.v.v.v.v.v.v.v.k 8 8 8 8 8 8 8 8 8 8 8 8 8 8 8 6 7 3 = % @ o     ",
"    o @ % = 3 7 6 8 8 8 8 8 8 8 8 8 8 8 8 8 8 8 8 e e e e e e e e e e e e e e w 8 8 8 8 8 8 8 8 8 8 8 8 8 8 8 6 7 3 = % @ o     ",
"    o @ % = 3 7 6 8 8 8 8 8 8 8 8 8 8 8 8 8 8 8 8 8 8 8 8 8 8 8 8 8 8 8 8 8 8 8 8 8 8 8 8 8 8 8 8 8 8 8 8 8 8 6 7 3 = % @ o     ",
"    o @ % = 3 7 6 8 8 8 8 8 8 8 8 8 8 8 8 8 8 8 8 8 8 8 8 8 8 8 8 8 8 8 8 8 8 8 8 8 8 8 8 8 8 8 8 8 8 8 8 8 8 6 7 3 = % @ o     ",
"    o @ % = 3 7 6 8 8 8 8 8 8 8 8 8 8 8 8 8 8 8 8 8 8 8 8 8 8 8 8 8 8 8 8 8 8 8 8 8 8 8 8 8 8 8 8 8 8 8 8 8 8 6 7 3 = % @ o     ",
"    o @ % = 3 7 6 8 8 8 8 8 8 8 8 8 8 8 8 8 8 8 8 8 8 8 8 8 8 8 8 8 8 8 8 8 8 8 8 8 8 8 8 8 8 8 8 8 8 8 8 8 8 6 7 3 = % @ o     ",
"    o @ % = 3 7 6 8 8 8 8 8 8 8 8 8 8 8 8 8 8 8 8 8 8 8 8 8 8 8 8 8 8 8 8 8 8 8 8 8 8 8 8 8 8 8 8 8 8 8 8 8 8 6 7 3 = % @ o     ",
"    o @ % = 3 7 6 8 8 8 8 8 8 8 8 8 8 8 8 8 8 8 8 8 8 8 8 8 8 8 8 8 8 8 8 8 8 8 8 8 8 8 8 8 8 8 8 8 8 8 8 8 8 6 7 3 = % @ o     ",
"    o @ % = 3 7 6 8 8 8 8 8 8 8 8 8 8 8 8 8 8 8 8 8 8 8 8 8 8 8 8 8 8 8 8 8 8 8 8 8 8 8 8 8 8 8 8 8 8 8 8 8 8 6 7 3 = % @ o     ",
"    o @ % = 3 7 6 8 8 8 8 8 8 8 8 8 8 8 8 8 8 8 8 8 8 8 8 8 8 8 8 8 8 8 8 8 8 8 8 8 8 8 8 8 8 8 8 8 8 8 8 8 8 6 7 3 = % @ o     ",
"    o @ % = 3 7 6 8 8 8 8 8 8 8 8 8 8 8 8 8 8 8 8 8 8 8 8 8 8 8 8 8 8 8 8 8 8 8 8 8 8 8 8 8 8 8 8 8 8 8 8 8 8 6 7 3 = % @ o     ",
"    o @ % = 3 7 6 8 8 8 8 8 8 8 8 8 8 8 8 8 8 8 8 8 8 8 8 8 8 8 8 8 8 8 8 8 8 8 8 8 8 8 8 8 8 8 8 8 8 8 8 8 8 6 7 3 = % @ o     ",
"    o @ % = 3 4 5 6 6 6 6 6 6 6 6 6 6 6 6 6 6 6 6 6 6 6 6 6 6 6 6 6 6 6 6 6 6 6 6 6 6 6 6 6 6 6 6 6 6 6 6 6 6 5 4 3 = % @ o     ",
"    o @ % = b.n.4 m.m.m.m.m.m.m.m.m.m.m.m.m.m.m.m.m.m.m.m.m.m.m.m.m.m.m.m.m.m.m.m.m.m.m.m.m.m.m.m.m.m.m.m.m.m.4 n.b.= % @ o     ",
"    o @ % * M.N.B.B.B.B.B.B.B.B.B.B.B.B.B.B.B.B.B.B.B.B.B.B.B.B.B.B.B.B.B.B.B.B.B.B.B.B.B.B.B.B.B.B.B.B.B.B.B.B.N.M.* % @ o     ",
"    o @ $ & V.C.C.C.C.C.C.C.C.C.C.C.C.C.C.C.C.C.C.C.C.C.C.C.C.C.C.C.C.C.C.C.C.C.C.C.C.C.C.C.C.C.C.C.C.C.C.C.C.C.C.V.& $ @ o     ",
"    X + # $ % % % % % % % % % % % % % % % % % % % % % % % % % % % % % % % % % % % % % % % % % % % % % % % % % % % % $ # + X     ",
"    . O + @ @ @ @ @ @ @ @ @ @ @ @ @ @ @ @ @ @ @ @ @ @ @ @ @ @ @ @ @ @ @ @ @ @ @ @ @ @ @ @ @ @ @ @ @ @ @ @ @ @ @ @ @ @ + O .     ",
"    . . X o o o o o o o o o o o o o o o o o o o o o o o o o o o o o o o o o o o o o o o o o o o o o o o o o o o o o o X . .     ",
"                                                                                                                                ",
"                                                                                                                                "
};
