/* XPM */
static char *_cb9b1537d46461fcd3383659f5eaabad3jkTdwiJxza8oqy[] = {
/* columns rows colors chars-per-pixel */
"64 64 151 2 ",
"   c black",
".  c #88FFED",
"X  c #86FFED",
"o  c #85FFED",
"O  c #88FFEE",
"+  c #88FFED",
"@  c #85FFED",
"#  c #85FFED",
"$  c #88FFEE",
"%  c #81FFEC",
"&  c None",
"*  c #80FFEC",
"=  c #80FFED",
"-  c #7FFFEC",
";  c #80FFEE",
":  c #81FFF0",
">  c #69D4C4",
",  c #4C978C",
"<  c #4C998D",
"1  c #69D3C4",
"2  c #499187",
"3  c #42686C",
"4  c #68A3AA",
"5  c #66A0A7",
"6  c #81FFEF",
"7  c #67A2A9",
"8  c #A0FCFF",
"9  c #9EF8FF",
"0  c #499287",
"q  c #66A0A6",
"w  c #9BF4FE",
"e  c #99F0FA",
"r  c #97EEF7",
"t  c #99F1FB",
"y  c #9CF5FF",
"u  c #598D93",
"i  c #283F42",
"p  c #659FA5",
"a  c #9DF7FF",
"s  c #97EEF8",
"d  c #3E6266",
"f  c black",
"g  c #4F7C81",
"h  c #9DF8FF",
"j  c #9DF6FF",
"k  c #649EA4",
"l  c #294043",
"z  c #598B91",
"x  c #9BF5FF",
"c  c #406469",
"v  c #507E83",
"b  c #4D797E",
"n  c #3D6063",
"m  c #4E7B80",
"M  c #4E7A7F",
"N  c #3D6165",
"B  c #9CF6FF",
"V  c #406569",
"C  c #456D71",
"Z  c #355357",
"A  c #9AF2FC",
"S  c #99F2FB",
"D  c #8EDFE8",
"F  c #8BDBE4",
"G  c #8CDDE6",
"H  c #395A5E",
"J  c #314E51",
"K  c #223638",
"L  c #93E7F0",
"P  c #8DDFE8",
"I  c #273D40",
"U  c #121D1E",
"Y  c #131F20",
"T  c #141F20",
"R  c #080D0D",
"E  c #182527",
"W  c #0D1414",
"Q  c #7FC7CF",
"!  c #90E2EB",
"~  c #3A5B5E",
"^  c #294144",
"/  c #111B1C",
"(  c #6AA7AE",
")  c #040606",
"_  c #060909",
"`  c #55858B",
"'  c #9BF3FD",
"]  c #98EFF8",
"[  c #98EFF9",
"{  c #345155",
"}  c #020303",
"|  c #436A6E",
" . c #0B1213",
".. c #1E2F31",
"X. c #8DDEE7",
"o. c #6EAEB5",
"O. c #060A0A",
"+. c #1B2A2C",
"@. c #88D6DE",
"#. c #518085",
"$. c #8CDCE5",
"%. c #24383A",
"&. c #9EF9FF",
"*. c #73B4BC",
"=. c #090E0E",
"-. c #71B2B9",
";. c #93E7F1",
":. c #3B5D60",
">. c #24393B",
",. c #477074",
"<. c #76BAC2",
"1. c #8BDCE5",
"2. c #3B5D61",
"3. c #0E1717",
"4. c #73B6BD",
"5. c #8FE1EA",
"6. c #2F4B4E",
"7. c #6199A0",
"8. c #94E9F3",
"9. c #81CCD4",
"0. c #23383A",
"q. c #0B1111",
"w. c #639CA2",
"e. c #89D8E1",
"r. c #304C4F",
"t. c #090F0F",
"y. c #294143",
"u. c #172425",
"i. c #69A6AD",
"p. c #90E2EC",
"a. c #4B767B",
"s. c #476F74",
"d. c #95EBF4",
"f. c #88D5DE",
"g. c #85D1D9",
"h. c #9AF3FD",
"j. c #406468",
"k. c #528086",
"l. c #81CBD3",
"z. c #6DACB3",
"x. c #85D2DB",
"c. c #A0FDFF",
"v. c #489085",
"b. c #42676B",
"n. c #659FA6",
"m. c #61C2B3",
"M. c #397269",
"N. c #3A736B",
"B. c #7EFEEB",
"V. c #7DFBE9",
"C. c white",
/* pixels */
"                                                                                                                                ",
"                                                                                                                                ",
"    . . X o o o o o o o o o o o o o o o o o o o o o o o o o o o o o o o o o o o o o o o o o o o o o o o o o o o o o o X O O     ",
"    . + @ # # # # # # # # # # # # # # # # # # # # # # # # # # # # # # # # # # # # # # # # # # # # # # # # # # # # # # @ $ O     ",
"    X @ % & * * * * * * * * * * * * * * * * * * * * * * * * * * * * * * * * * * * * * * * * * * * * * * * * * * * * & % @ X     ",
"    o # & - ; : : : : : : : : : : : : : : : : : : : : : : : : : : : : : : : : : : : : : : : : : : : : : : : : : : ; - & # o     ",
"    o # * ; > , < < < < < < < < < < < < < < < < < < < < < < < < < < < < < < < < < < < < < < < < < < < < < < < < , 1 ; * # o     ",
"    o # * : 2 3 4 5 5 5 5 5 5 5 5 5 5 5 5 5 5 5 5 5 5 5 5 5 5 5 5 5 5 5 5 5 5 5 5 5 5 5 5 5 5 5 5 5 5 5 5 5 5 4 3 2 : * # o     ",
"    o # * 6 2 7 8 9 9 9 9 9 9 9 9 9 9 9 9 9 9 9 9 9 9 9 9 9 9 9 9 9 9 9 9 9 9 9 9 9 9 9 9 9 9 9 9 9 9 9 9 9 9 8 7 0 6 * # o     ",
"    o # * 6 2 q 9 w w w w w w w w w w w w w w w w w w w w w w w w w w w w w w w w w w w w w w w w w w w w w w 9 q 0 6 * # o     ",
"    o # * 6 0 q 9 w w w w w w w w w w w w w w w w w w w w w w w w w w w w w w w w w w w w w w w w w w w w w w 9 q 0 6 * # o     ",
"    o # * 6 0 q 9 w w w w w w w w w w w w w w w w w w w w w w w w w w w w w w w w w w w w w w w w w w w w w w 9 q 0 6 * # o     ",
"    o # * 6 0 q 9 w w w w w w w w w w w w w w w w w w w w w w w w w w w w w w w w w w w w w w w w w w w w w w 9 q 0 6 * # o     ",
"    o # * 6 2 q 9 w w w w w w w w w w w w w w w w w w w w w w w w w w w w w w w w w w w w w w w w w w w w w w 9 q 0 6 * # o     ",
"    o # * 6 2 q 9 w w w w w w w w w w w w w w w w w w w w w w w w w w w w w w w w w w w w w w w w w w w w w w 9 q 0 6 * # o     ",
"    o # * 6 0 q 9 w w w w w w w w w w w w w w w w w w w w w w w w w w w w w w w w w w w w w w w w w w w w w w 9 q 0 6 * # o     ",
"    o # * 6 0 q 9 w w w w w w w w w w w w w w w w w w w w w w w w w w w w w w w w w w w w w w w w w w w w w w 9 q 0 6 * # o     ",
"    o # * 6 2 q 9 w w w w w w w w w w w w w w w w w w w w w w w w w w w w w w w w w w w w w w w w w w w w w w 9 q 0 6 * # o     ",
"    o # * 6 2 q 9 w w w w w w w w w w w w w w w w w w w w w w w w w w w w w w w w w w w w w w w w w w w w w w 9 q 0 6 * # o     ",
"    o # * 6 2 q 9 w w w w w w w w w w w w w w w w w w w w w w w w w w w w w e r t w w w w w w w w w w w w w w 9 q 0 6 * # o     ",
"    o # * 6 2 q 9 w w w w w w w w w w w w w w w w w w w w w w w w w w w w y u i p a w w w w w w w w w w w w w 9 q 0 6 * # o     ",
"    o # * 6 2 q 9 w w w w w w w w w w w w w w w w w w t s t w w w w w w w y d f g h w w w w w w w w w w w w w 9 q 0 6 * # o     ",
"    o # * 6 2 q 9 w w w w w w w w w w w w w w w w w j k l z x w w w w w w y c f v h w w w w w w w w w w w w w 9 q 0 6 * # o     ",
"    o # * 6 0 q 9 w w w w w w w w w w w w w w w w w a b f n x w w w w w w y c f v h w w w w w w w w w w w w w 9 q 0 6 * # o     ",
"    o # * 6 0 q 9 w w w w w w w w w w w w w w w w w a m f d x w w w w w w y c f v h w w w w w w w w w w w w w 9 q 0 6 * # o     ",
"    o # * 6 0 q 9 w w w w w w w w w w w w w w w w w a m f d x w w w w w w y c f v h w w w w w w w w w w w w w 9 q 0 6 * # o     ",
"    o # * 6 2 q 9 w w w w w w w w w w w w w w w w w a M f N x w w y B B B a V f v h w w w w w w w w w w w w w 9 q 0 6 * # o     ",
"    o # * 6 2 q 9 w w w w w w w w w w w w w w w w w B C f Z A w S D F F F G H f v h w w w w w w w w w w w w w 9 q 0 6 * # o     ",
"    o # * 6 2 q 9 w w w w w w w w w w w w w w w w w e J f K L B P I U Y Y T R f v h w w w w w w w w w w w w w 9 q 0 6 * # o     ",
"    o # * 6 0 q 9 w w w w w w w w w w w w w w w w B F E f W Q 9 ! ~ i ^ ^ ^ / f v h w w w w w w w w w w w w w 9 q 0 6 * # o     ",
"    o # * 6 0 q 9 w w w w w w w w w w w w w w w w h ( ) _ f ` a ' ] r r r [ d f v h w w w w w w w w w w w w w 9 q 0 6 * # o     ",
"    o # * 6 2 q 9 w w w w w w w w w w w w w w w x s { } |  ...X.B w w w w B V f v h w w w w w w w w w w w w w 9 q 0 6 * # o     ",
"    o # * 6 0 q 9 w w w w w w w w w w w w w w w h o.O.+.@.{ f #.y w w w w y c f v h w w w w w w w w w w w w w 9 q 0 6 * # o     ",
"    o # * 6 2 q 9 w w w w w w w w w w w w w w B $.%.f ` &.*.=.W -.a w w w y c f v h w w w w w w w w w w w w w 9 q 0 6 * # o     ",
"    o # * 6 2 q 9 w w w w w w w w w w w w w B ;.:.f >.D B S ,.f E <.a y w y c f v h w w w w w w w w w w w w w 9 q 0 6 * # o     ",
"    o # * 6 2 q 9 w w w w w w w w w w w w y 1.2.f 3.4.a w B 5.6.f Y 7.8.x y c f v h w w w w w w w w w w w w w 9 q 0 6 * # o     ",
"    o # * 6 0 q 9 w w w w w w w w w w w B 9.0.f q.w.y w w w B e.r.f t.4.a y c f v h w w w w w w w w w w w w w 9 q 0 6 * # o     ",
"    o # * 6 0 q 9 w w w w w w w w w w w y $.y.u.i.w w w w w w B p.a.s.d.x y c f v h w w w w w w w w w w w w w 9 q 0 6 * # o     ",
"    o # * 6 0 q 9 w w w w w w w w w w w w B f.g.B w w w w w w w y h.[ x w y c f v h w w w w w w w w w w w w w 9 q 0 6 * # o     ",
"    o # * 6 2 q 9 w w w w w w w w w w w w w B B w w w w w w w w w w w w w y c f v h w w w w w w w w w w w w w 9 q 0 6 * # o     ",
"    o # * 6 2 q 9 w w w w w w w w w w w w w w w w w w w w w w w w w w w w y c f v h w w w w w w w w w w w w w 9 q 0 6 * # o     ",
"    o # * 6 0 q 9 w w w w w w w w w w w w w w w w w w w w w w w w w w w w y j.f v h w w w w w w w w w w w w w 9 q 0 6 * # o     ",
"    o # * 6 0 q 9 w w w w w w w w w w w w w w w w w w w w w w w w w w w w y 3 f k.a w w w w w w w w w w w w w 9 q 0 6 * # o     ",
"    o # * 6 2 q 9 w w w w w w w w w w w w w w w w w w w w w w w w w w w w w l.z.x.y w w w w w w w w w w w w w 9 q 0 6 * # o     ",
"    o # * 6 2 q 9 w w w w w w w w w w w w w w w w w w w w w w w w w w w w w B 9 B w w w w w w w w w w w w w w 9 q 0 6 * # o     ",
"    o # * 6 2 q 9 w w w w w w w w w w w w w w w w w w w w w w w w w w w w w w w w w w w w w w w w w w w w w w 9 q 0 6 * # o     ",
"    o # * 6 2 q 9 w w w w w w w w w w w w w w w w w w w w w w w w w w w w w w w w w w w w w w w w w w w w w w 9 q 0 6 * # o     ",
"    o # * 6 2 q 9 w w w w w w w w w w w w w w w w w w w w w w w w w w w w w w w w w w w w w w w w w w w w w w 9 q 0 6 * # o     ",
"    o # * 6 2 q 9 w w w w w w w w w w w w w w w w w w w w w w w w w w w w w w w w w w w w w w w w w w w w w w 9 q 0 6 * # o     ",
"    o # * 6 0 q 9 w w w w w w w w w w w w w w w w w w w w w w w w w w w w w w w w w w w w w w w w w w w w w w 9 q 0 6 * # o     ",
"    o # * 6 0 q 9 w w w w w w w w w w w w w w w w w w w w w w w w w w w w w w w w w w w w w w w w w w w w w w 9 q 0 6 * # o     ",
"    o # * 6 0 q 9 w w w w w w w w w w w w w w w w w w w w w w w w w w w w w w w w w w w w w w w w w w w w w w 9 q 0 6 * # o     ",
"    o # * 6 2 q 9 w w w w w w w w w w w w w w w w w w w w w w w w w w w w w w w w w w w w w w w w w w w w w w 9 q 0 6 * # o     ",
"    o # * 6 2 q 9 w w w w w w w w w w w w w w w w w w w w w w w w w w w w w w w w w w w w w w w w w w w w w w 9 q 0 6 * # o     ",
"    o # * 6 2 q 9 w w w w w w w w w w w w w w w w w w w w w w w w w w w w w w w w w w w w w w w w w w w w w w 9 q 0 6 * # o     ",
"    o # * 6 0 7 c.9 9 9 9 9 9 9 9 9 9 9 9 9 9 9 9 9 9 9 9 9 9 9 9 9 9 9 9 9 9 9 9 9 9 9 9 9 9 9 9 9 9 9 9 9 9 c.7 0 6 * # o     ",
"    o # * : v.b.7 n.n.n.n.n.n.n.n.n.n.n.n.n.n.n.n.n.n.n.n.n.n.n.n.n.n.n.n.n.n.n.n.n.n.n.n.n.n.n.n.n.n.n.n.n.n.7 b.v.: * # o     ",
"    o # * ; m.M.N.N.N.N.N.N.N.N.N.N.N.N.N.N.N.N.N.N.N.N.N.N.N.N.N.N.N.N.N.N.N.N.N.N.N.N.N.N.N.N.N.N.N.N.N.N.N.N.M.m.; * # o     ",
"    o # & - B.V.V.V.V.V.V.V.V.V.V.V.V.V.V.V.V.V.V.V.V.V.V.V.V.V.V.V.V.V.V.V.V.V.V.V.V.V.V.V.V.V.V.V.V.V.V.V.V.V.V.B.- & # o     ",
"    X @ % & * = = = = = = = = = = = = = = = = = = = = = = = = = = = = = = = = = = = = = = = = = = = = = = = = = = * & % @ X     ",
"    . + @ # # # # # # # # # # # # # # # # # # # # # # # # # # # # # # # # # # # # # # # # # # # # # # # # # # # # # # @ + .     ",
"    . . X o o o o o o o o o o o o o o o o o o o o o o o o o o o o o o o o o o o o o o o o o o o o o o o o o o o o o o X . .     ",
"                                                                                                                                ",
"                                                                                                                                "
};
